HIERARCHY
ROOT pelvis
{
	OFFSET 0.000000 0.000000 0.000000
	CHANNELS 6 Xposition Yposition Zposition Zrotation Xrotation Yrotation
	JOINT lfemur
	{
		OFFSET 11.446000 0.000000 0.000000
		CHANNELS 3 Zrotation Xrotation Yrotation
		JOINT ltibia
		{
			OFFSET 0.000000 -42.030400 0.000000
			CHANNELS 3 Zrotation Xrotation Yrotation
			JOINT lfoot
			{
				OFFSET 0.000000 -39.930200 0.000000
				CHANNELS 3 Zrotation Xrotation Yrotation
				JOINT ltoes
				{
					OFFSET 0.000000 0.000000 11.775800
					CHANNELS 3 Zrotation Xrotation Yrotation
					End Site
					{
					    OFFSET 0.000000 0.000000 5.000000
					}
				}
			}
		}
	}
	JOINT rfemur
	{
		OFFSET -11.446000 0.000000 0.000000
		CHANNELS 3 Zrotation Xrotation Yrotation
		JOINT rtibia
		{
			OFFSET 0.000000 -42.030400 0.000000
			CHANNELS 3 Zrotation Xrotation Yrotation
			JOINT rfoot
			{
				OFFSET 0.000000 -39.930200 0.000000
				CHANNELS 3 Zrotation Xrotation Yrotation
				JOINT rtoes
				{
					OFFSET 0.000000 0.000000 11.775800
					CHANNELS 3 Zrotation Xrotation Yrotation
					End Site
					{
					    OFFSET 0.000000 0.000000 5.000000
					}
				}
			}
		}
	}
	JOINT thorax
	{
		OFFSET 0.000000 11.255600 -5.000000
		CHANNELS 3 Zrotation Xrotation Yrotation
		JOINT head
		{
			OFFSET 0.000000 43.799300 0.000000
			CHANNELS 3 Zrotation Xrotation Yrotation
			End Site
			{
			    OFFSET 0.000000 5.000000 0.000000
			}
		}
		JOINT lclavicle
		{
			OFFSET 0.000000 39.863000 0.000000
			CHANNELS 3 Zrotation Xrotation Yrotation
			JOINT lhumerus
			{
				OFFSET 17.380600 4.958300 0.000000
				CHANNELS 3 Zrotation Xrotation Yrotation
				JOINT lradius
				{
					OFFSET 0.000000 -27.561300 0.000000
					CHANNELS 3 Zrotation Xrotation Yrotation
					JOINT lhand
					{
						OFFSET 0.000000 -26.933000 0.000000
						CHANNELS 3 Zrotation Xrotation Yrotation
						End Site
						{
						    OFFSET 0.000000 -5.000000 0.000000
						}
					}
				}
			}
		}
		JOINT rclavicle
		{
			OFFSET 0.000000 39.863000 0.000000
			CHANNELS 3 Zrotation Xrotation Yrotation
			JOINT rhumerus
			{
				OFFSET -17.380600 4.958300 0.000000
				CHANNELS 3 Zrotation Xrotation Yrotation
				JOINT rradius
				{
					OFFSET 0.000000 -27.561300 0.000000
					CHANNELS 3 Zrotation Xrotation Yrotation
					JOINT rhand
					{
						OFFSET 0.000000 -26.933000 0.000000
						CHANNELS 3 Zrotation Xrotation Yrotation
						End Site
						{
						    OFFSET 0.000000 -5.000000 0.000000
						}
					}
				}
			}
		}
	}
}
MOTION
Frames:	18
Frame Time:	0.0333333
20.3479 84.9675 10.6152 2.34875 1.92726 -51.8942 -1.44536 -27.0321 -6.49015 0.0812819 21.2305 -0.235775 1.4475 9.66635 -3.34887 8.74616e-016 -5 3.1927e-015 6.4105 14.6286 7.41015 -0.0781577 20.2373 0.0764176 -5.63353 -4.54443 2.71192 1.03375e-015 -5 -6.38541e-015 2.75178 4.95492 4.39812 1.58824 -0.641456 -9.05056 3.97569e-016 1.59028e-015 -0 8.29437 -4.007 -9.42563 14.2978 -21.6876 5.93684 -0.111966 -1.33098 -9.51638 3.97569e-016 1.59028e-015 -0 -8.66048 -5.22169 11.5389 -16.0154 -23.8149 -6.92323 0.104029 -1.28279 9.16937 
18.1901 85.3896 13.3962 2.17407 1.66403 -51.7091 -1.75096 -25.0253 -4.50342 0.0874025 22.1507 -0.232275 1.78975 9.35517 -5.49313 3.97569e-016 -5 -0 5.84468 10.9169 5.20653 -0.177058 31.4414 0.315487 -7.89916 -1.32671 5.76386 3.18055e-015 -5 -0 2.78496 4.89015 3.93891 1.26952 -0.387532 -9.02463 5.51738e-032 -9.93923e-016 3.18055e-015 7.97184 -3.89976 -8.02709 13.9103 -21.1927 5.72079 -0.134213 -1.45718 -10.4289 5.51738e-032 -9.93923e-016 3.18055e-015 -8.36863 -4.02981 8.61861 -14.8592 -22.395 -6.25409 0.143681 -1.50814 10.7975 
15.9895 85.7954 16.3131 2.24783 0.415725 -52.6868 -2.87791 -21.6917 -3.02927 0.0897452 21.9647 -0.24201 1.80685 7.17507 -7.5713 -5.16876e-016 -5 3.1927e-015 3.60194 5.5849 4.2413 -0.388352 44.6922 1.01714 -10.0324 5.22632 9.24101 -3.45882e-015 -5 -3.1927e-015 1.53313 5.37193 3.57312 1.38096 -0.65505 -8.332 3.97569e-016 -1.98785e-016 -3.18055e-015 8.05272 -3.60302 -7.93486 13.6233 -20.8222 5.56236 -0.114936 -1.34902 -9.64666 3.97569e-016 -1.98785e-016 -3.18055e-015 -7.6822 -3.17831 7.94222 -14.3356 -21.7358 -5.95805 0.138479 -1.48064 10.5979 
14.0976 86.2722 19.2774 3.97156 -1.96852 -53.3276 -6.56223 -17.3857 -2.83943 0.0656264 18.3087 -0.215579 1.80366 7.64268 -7.47568 1.31201e-015 -5 -3.1927e-015 -0.939796 -1.92878 3.24919 -0.771871 56.8087 0.550873 -5.75898 13.9557 12.6791 -3.18055e-015 -5 -0 -2.1844 5.2385 2.94738 1.64992 -0.983118 -7.75592 1.98626e-031 1.19271e-015 -9.54166e-015 9.08758 -3.66296 -7.96572 13.6005 -20.7925 5.54987 -0.119559 -1.37576 -9.83887 1.98626e-031 1.19271e-015 -9.54166e-015 -6.8661 -2.59632 8.68735 -14.2023 -21.5662 -5.88342 0.130215 -1.43525 10.2699 
11.7806 86.5759 21.7748 3.25595 -2.51647 -54.3014 -6.87589 -13.7957 -1.94017 0.0604166 17.655 -0.210465 1.64984 6.59177 -6.52663 -0 -5 -0 -1.1536 -6.57817 2.95151 -1.3016 65.2479 1.14387 -2.75987 9.67591 5.46229 -6.22198e-015 -5 1.59635e-015 -2.27277 6.09264 2.66165 1.52869 -1.61468 -7.19968 0 1.59028e-015 -0 9.59479 -4.30866 -9.34154 13.0103 -20.0204 5.22871 -0.164151 -1.61224 -11.5525 0 1.59028e-015 -0 -7.15562 -1.84636 11.882 -15.0373 -22.6168 -6.35591 0.0849894 -1.15801 8.27076 
9.80818 86.708 24.3525 3.90699 -3.89885 -54.0016 -8.94046 -10.2755 -2.04062 0.0486079 15.3761 -0.198459 1.5746 5.89104 -6.4791 -2.38542e-015 -5 -0 -3.47406 -11.7737 1.44425 -2.05176 71.7347 1.94347 -1.15546 5.09283 -0.390858 3.18055e-015 -5 -0 -4.20093 6.32132 1.05383 1.6807 -1.63993 -6.49035 7.95139e-016 -7.95139e-016 6.36111e-015 10.383 -5.08322 -9.23897 12.4744 -19.3084 4.94231 -0.219135 -1.86083 -13.3655 7.95139e-016 -7.95139e-016 6.36111e-015 -6.41806 -1.62982 11.0532 -15.2807 -22.9184 -6.49577 0.127188 -1.41809 10.1467 
7.59399 86.5305 26.6343 3.44703 -3.64899 -53.6556 -9.01763 -8.46776 -1.85656 0.054085 16.7322 -0.187083 2.11337 2.74634 -6.40027 -3.96488e-017 -5 -9.57811e-015 -3.00075 -16.9554 0.104522 -2.59884 74.6403 2.4716 -0.562973 1.64607 -4.95575 -3.18055e-015 -5 -0 -3.63999 6.4563 -0.117207 1.57009 -1.24209 -6.59571 1.19271e-015 3.97569e-016 3.18055e-015 10.6528 -6.0752 -9.08493 12.2884 -19.0587 4.84416 -0.217278 -1.85337 -13.3101 1.19271e-015 3.97569e-016 3.18055e-015 -6.30747 -0.676285 11.9368 -16.5573 -24.4635 -7.24409 0.0724315 -1.06798 7.62443 
5.39038 86.2169 28.8503 3.08632 -3.68575 -53.4477 -9.22486 -7.32251 -1.33391 0.0680729 19.3146 -0.161728 2.59643 -0.540007 -6.76051 7.95139e-016 -5 -0 -2.68365 -21.5695 -0.235672 -2.55621 74.4661 2.43598 -0.865912 -0.665081 -4.48577 6.63937e-015 -5 3.1927e-015 -3.56644 6.9689 -0.885037 1.64537 -1.03998 -6.88508 -3.97569e-016 0 -0 11.0036 -7.22715 -9.89831 12.5086 -19.3541 4.96048 -0.20634 -1.80631 -12.9664 -3.97569e-016 0 -0 -5.90654 -0.154633 11.7866 -17.6468 -25.7349 -7.90175 0.0289601 -0.667577 4.7575 
3.29975 85.7225 31.1848 3.55273 -4.42586 -52.772 -10.5906 -6.33245 -0.76978 0.083855 21.4426 -0.0925613 3.46459 -3.06044 -7.4789 7.95139e-016 -5 -0 -3.44204 -25.7718 -0.145487 -2.06414 71.8435 1.98835 -1.17002 -3.63069 -4.30574 6.08285e-015 -5 -3.1927e-015 -4.64837 7.33609 -2.19475 2.21519 -1.39472 -6.71695 7.95139e-016 -7.95139e-016 9.54166e-015 11.6286 -8.29911 -11.1851 13.3031 -20.4049 5.38714 -0.147873 -1.52978 -10.9545 7.95139e-016 -7.95139e-016 9.54166e-015 -5.44745 0.029894 12.0945 -18.356 -26.5392 -8.33869 0.0162807 -0.490917 3.49847 
1.14822 85.18 33.4438 3.46963 -4.21662 -51.9841 -10.7036 -5.6201 -0.0932899 0.103784 24.3193 -0.100855 2.95382 -6.45245 -7.38457 8.34787e-016 -5 9.57811e-015 -3.1835 -29.1123 -0.607915 -1.37627 66.1115 1.34592 -1.29401 -3.96223 -4.24641 2.62403e-015 -5 -6.38541e-015 -4.27321 7.70548 -3.36895 1.9614 -2.13238 -7.24111 3.97569e-016 7.95139e-016 3.18055e-015 11.9573 -9.63401 -13.5873 14.1299 -21.4731 5.84271 -0.101763 -1.2682 -9.06447 3.97569e-016 7.95139e-016 3.18055e-015 -5.33609 -0.101041 12.4267 -18.784 -27.016 -8.60571 0.01013 -0.37849 2.69653 
-1.15628 85.0356 35.7763 3.31441 -4.05195 -51.7827 -11.0305 -2.51007 -0.741698 0.0948184 22.7802 0.0145065 3.89719 -7.64366 -7.32671 1.59028e-015 -5 -0 -2.67054 -31.0666 -0.547047 -0.821798 57.7494 0.843336 -1.33286 -3.05245 -4.67775 -0 -5 -0 -3.79987 7.97062 -3.80288 2.24584 -2.31004 -7.21122 -3.97569e-016 -3.97569e-016 -0 11.7544 -10.6386 -14.9857 14.9495 -22.507 6.30542 -0.0869754 -1.17171 -8.36973 -3.97569e-016 -3.97569e-016 -0 -5.61476 -0.0862386 12.1258 -18.5803 -26.7899 -8.47843 0.0152499 -0.473941 3.37668 
-3.48297 84.9651 37.8647 3.81005 -3.78379 -52.1039 -11.483 -0.156642 -0.851995 0.0852077 21.2463 -0.0464355 3.31566 -8.35303 -5.92954 3.18055e-015 -5 -0 -2.09952 -32.226 1.18868 -0.451355 47.4091 0.528018 -1.2358 -0.934769 -5.50825 -2.66368e-015 -5 -3.1927e-015 -4.16089 7.5642 -3.5459 2.34316 -1.96533 -7.3571 1.59028e-015 0 3.18055e-015 11.8882 -11.5313 -15.5896 15.8997 -23.6745 6.85519 -0.0749057 -1.08635 -7.7567 1.59028e-015 0 3.18055e-015 -5.40454 -0.0223122 11.4906 -18.1248 -26.2791 -8.1955 0.0214718 -0.569708 4.05943 
-5.87779 84.8847 39.954 3.98297 -3.01062 -52.0165 -11.1022 2.57826 -0.420578 0.0748839 18.6935 0.0440099 4.12125 -8.63358 -6.32035 2.90229e-015 -5 -3.1927e-015 -0.974766 -31.8206 1.98047 -0.201442 34.3165 0.274588 -0.704623 4.97488 -6.62007 1.66994e-015 -5 -1.27708e-014 -3.68608 7.1074 -3.63689 2.67103 -2.06192 -7.72149 3.53113e-031 3.18055e-015 -6.36111e-015 11.9122 -12.3964 -16.7463 16.4156 -24.2944 7.15956 -0.0652299 -1.01233 -7.22558 3.53113e-031 3.18055e-015 -6.36111e-015 -5.56319 0.185502 13.798 -18.2785 -26.4521 -8.29057 0.00487435 -0.239605 1.70825 
-8.3253 84.8937 42.2839 4.55582 -3.03065 -51.7679 -11.7422 6.79193 0.194036 0.0548409 14.0075 -0.0345384 3.60468 -7.42627 -6.17123 1.31201e-015 -5 -3.1927e-015 -1.46765 -30.5891 2.34886 -0.0780286 22.2248 0.133563 -0.654638 9.88757 -4.43344 4.17484e-016 -5 -3.1927e-015 -4.06816 6.44117 -3.90551 2.90586 -1.78905 -7.46797 1.19271e-015 -1.98785e-015 -3.18055e-015 11.9623 -12.7862 -17.9445 16.9468 -24.9222 7.47697 -0.0426223 -0.814693 -5.81026 1.19271e-015 -1.98785e-015 -3.18055e-015 -5.90438 0.91044 15.5775 -18.3353 -26.5154 -8.3259 0.00131252 -0.0384808 0.276299 
-10.8227 84.7124 44.5788 4.7653 -3.05454 -51.5806 -12.0701 11.0414 -0.928667 0.0398433 9.79215 -0.0359323 4.08956 -6.03437 -5.86445 2.90229e-015 -5 -3.1927e-015 -1.61198 -29.0991 3.13548 -0.0311269 13.7824 0.0996177 -0.986217 10.0413 -2.44857 -2.30576e-015 -5 -1.27708e-014 -4.13433 5.98999 -3.71723 2.44504 -1.04226 -7.96306 -4.41391e-032 -7.95139e-016 -3.18055e-015 11.4936 -12.8653 -18.1674 17.1902 -25.2066 7.6238 -0.0521025 -0.903212 -6.44338 -4.41391e-032 -7.95139e-016 -3.18055e-015 -5.71747 1.21934 13.9016 -17.572 -25.6485 -7.85604 0.00648563 -0.260606 1.85667 
-12.9769 84.438 46.3433 5.25704 -2.53904 -50.916 -11.7364 11.782 -1.09141 0.0450844 11.0338 -0.0172637 4.26893 -6.75092 -6.48328 1.59028e-015 -5 -0 -0.932613 -30.4635 3.18052 -0.0198827 14.9983 0.0909832 -3.12877 6.77335 -3.34739 -0 -5 -0 -4.32193 5.53938 -4.31637 2.86666 -0.999351 -7.80073 0 7.95139e-016 -0 11.575 -12.8912 -18.1341 17.5332 -25.6037 7.83209 -0.059507 -0.966352 -6.89594 0 7.95139e-016 -0 -5.36542 1.02453 13.6294 -17.1523 -25.163 -7.60118 0.00761909 -0.319122 2.27371 
-15.5154 84.2845 48.6835 4.55026 -2.81205 -51.4865 -12.0451 13.97 -1.71647 0.0522191 12.2799 -0.00550573 5.19888 -6.39401 -5.4507 -1.86854e-015 -5 -3.1927e-015 -0.0317672 -29.8229 2.51924 -0.034493 18.8714 0.0292493 -3.76162 8.72369 -0.922212 -4.96962e-017 -5 -0 -3.57919 5.94858 -3.50556 2.48992 -0.964103 -7.81341 -3.97569e-016 1.98785e-015 -9.54166e-015 10.3882 -12.1052 -17.5259 17.8407 -25.9563 8.02028 -0.0665255 -1.02272 -7.30049 -3.97569e-016 1.98785e-015 -9.54166e-015 -5.87737 1.57325 13.7627 -17.2813 -25.3128 -7.67924 0.00343215 -0.187609 1.33714 
-17.9412 84.4957 50.4978 4.47979 -2.20165 -50.1253 -10.854 13.5576 -1.64291 0.0681619 16.2535 -0.00854552 5.70936 -6.28966 -7.65458 2.78262e-016 -5 3.1927e-015 0.825419 -28.6985 4.1345 -0.0468364 20.9508 0.0275921 -3.43871 9.66638 -0.420321 2.78262e-016 -5 3.1927e-015 -3.28991 5.83241 -4.47226 2.54055 -1.42799 -7.84374 3.97569e-016 3.97569e-016 -3.18055e-015 10.5941 -11.5539 -17.7883 17.8879 -26.0098 8.04921 -0.0494119 -0.878573 -6.26715 3.97569e-016 3.97569e-016 -3.18055e-015 -4.77078 0.627591 8.6232 -15.813 -23.5704 -6.8049 0.0474814 -0.861209 6.14175 
